<?xml version="1.0" encoding="utf-8"?>
<!-- Generator: Adobe Illustrator 25.4.1, SVG Export Plug-In . SVG Version: 6.00 Build 0)  -->
<svg version="1.1" id="Calque_1" xmlns="http://www.w3.org/2000/svg" xmlns:xlink="http://www.w3.org/1999/xlink" x="0px" y="0px"
	 viewBox="0 0 391 391" style="enable-background:new 0 0 391 391;" xml:space="preserve">
<path d="M386,195.5c0,4.3-2.5,8.2-6.3,10.1L21.4,384.8l0,0c-1.5,0.7-3.2,1.1-4.9,1.1c-2.5,0-5-0.9-6.9-2.5
	c-3.5-2.7-5.1-7.1-4.3-11.4l41.7-165.3h193.5c6.2,0,11.2-5,11.2-11.2s-5-11.2-11.2-11.2H46.9L5.2,19c-0.9-4.3,0.7-8.7,4-11.4
	c3.4-2.6,8-3.2,11.9-1.3l358.4,179.2v0C383.4,187.3,385.9,191.2,386,195.5L386,195.5z"/>
</svg>
